<?xml version="1.0" encoding="utf-8"?>
<svg xmlns="http://www.w3.org/2000/svg" width="243" height="32" viewBox="0 0 243 32" fill="none">
<path d="M195.233 31.9183C194.781 31.9183 194.414 31.5523 194.414 31.1009V25.9923C194.414 25.5409 194.781 25.175 195.233 25.175H196.461V5.63985C196.461 2.52504 198.989 0 202.109 0H211.563C214.683 0 217.212 2.52504 217.212 5.63985V25.175H218.44C218.892 25.175 219.258 25.5409 219.258 25.9923V31.1009C219.258 31.5523 218.892 31.9183 218.44 31.9183H210.458V7.43805C210.458 7.05435 210.147 6.7433 209.763 6.74329H203.91C203.525 6.74329 203.214 7.05435 203.214 7.43805V31.9183H195.233Z" fill="#FBCD2B"/>
<path d="M0 0.817377C0 0.365956 0.366493 8.4184e-06 0.818586 8.4184e-06H8.7998V24.4802C8.7998 24.8639 9.11131 25.175 9.49559 25.175H13.0974V23.9489C13.0974 23.4975 13.4639 23.1315 13.916 23.1315H19.0321C19.4842 23.1315 19.8507 23.4975 19.8507 23.9489V31.9183H7.69471C4.57527 31.9183 2.04646 29.3932 2.04646 26.2784V6.7433H0.818586C0.366493 6.7433 0 6.37735 0 5.92593V0.817377Z" fill="#FBCD2B"/>
<path d="M222 5.6438C222 2.52899 224.529 0.00395103 227.649 0.00395103H237.103C240.223 0.00395103 242.752 2.52899 242.752 5.6438V9.24022H235.998V7.44201C235.998 7.0583 235.687 6.74724 235.302 6.74724L229.45 6.74725C229.065 6.74725 228.754 7.0583 228.754 7.44201V12.0601C228.754 12.4439 229.065 12.7549 229.45 12.7549H237.103C240.223 12.7549 242.752 15.28 242.752 18.3948V26.2824C242.752 29.3972 240.223 31.9222 237.103 31.9222H227.649C224.529 31.9222 222 29.3972 222 26.2824V22.6859H228.754V24.4842C228.754 24.8679 229.065 25.1789 229.45 25.1789H235.302C235.687 25.1789 235.998 24.8679 235.998 24.4842V20.193C235.998 19.8093 235.687 19.4982 235.302 19.4982H227.649C224.529 19.4982 222 16.9732 222 13.8584V5.6438Z" fill="#FBCD2B"/>
<path d="M183.691 0.00395103H191.672V31.9222H183.691C183.239 31.9222 182.872 31.5563 182.872 31.1048V25.9963C182.872 25.5449 183.239 25.1789 183.691 25.1789H184.919V6.74724H183.691C183.239 6.74724 182.872 6.3813 182.872 5.92988V0.82132C182.872 0.3699 183.239 0.00395103 183.691 0.00395103Z" fill="#FBCD2B"/>
<path fill-rule="evenodd" clip-rule="evenodd" d="M158.519 0.00395103C158.067 0.00395103 157.701 0.3699 157.701 0.821321V5.92988C157.701 6.3813 158.067 6.74725 158.519 6.74725H159.747V25.1789H158.519C158.067 25.1789 157.701 25.5449 157.701 25.9963V31.1048C157.701 31.5563 158.067 31.9222 158.519 31.9222H166.5V20.6016H174.85C177.969 20.6016 180.498 18.0766 180.498 14.9618V5.6438C180.498 2.52899 177.969 0.00395103 174.85 0.00395103H158.519ZM166.5 6.74725V13.8584L173.049 13.8583C173.433 13.8583 173.745 13.5473 173.745 13.1636V7.44201C173.745 7.0583 173.433 6.74724 173.049 6.74724L166.5 6.74725Z" fill="#FBCD2B"/>
<path d="M155.327 5.6438C155.327 2.52899 152.798 0.00395103 149.678 0.00395103H140.224C137.104 0.00395103 134.576 2.52899 134.576 5.6438V13.8584C134.576 16.9732 137.104 19.4982 140.224 19.4982H147.878C148.262 19.4982 148.573 19.8093 148.573 20.193V24.4842C148.573 24.8679 148.262 25.1789 147.878 25.1789H142.025C141.64 25.1789 141.329 24.8679 141.329 24.4842V22.6859H134.576V26.2824C134.576 29.3972 137.104 31.9222 140.224 31.9222H149.678C152.798 31.9222 155.327 29.3972 155.327 26.2824V18.3948C155.327 15.28 152.798 12.7549 149.678 12.7549H142.025C141.64 12.7549 141.329 12.4439 141.329 12.0601V7.44201C141.329 7.0583 141.64 6.74725 142.025 6.74725L147.878 6.74724C148.262 6.74724 148.573 7.0583 148.573 7.44201V9.24022H155.327V5.6438Z" fill="#FBCD2B"/>
<path d="M96.3885 10.3397V0H103.142V8.54151C103.142 8.92521 103.453 9.23627 103.838 9.23627H109.65C110.034 9.23627 110.345 8.92521 110.345 8.54151V0H117.099V10.3397C117.099 13.4545 114.57 15.9796 111.45 15.9796H110.427V32H102.446C101.994 32 101.627 31.6341 101.627 31.1826V26.0741C101.627 25.6227 101.994 25.2567 102.446 25.2567H103.674V15.9796H102.037C98.9173 15.9796 96.3885 13.4545 96.3885 10.3397Z" fill="#FBCD2B"/>
<path d="M86.3198 0V8.5415C86.3198 8.92521 86.0083 9.23627 85.624 9.23627H79.0344V7.71687e-06H71.0532C70.6011 7.71687e-06 70.2346 0.365957 70.2346 0.817378V5.92593C70.2346 6.37736 70.6011 6.74331 71.0532 6.74331H72.2811V25.175H71.0532C70.6011 25.175 70.2346 25.5409 70.2346 25.9923V31.1009C70.2346 31.5523 70.6011 31.9183 71.0532 31.9183L79.0344 31.9183V16.0107L87.4144 31.9183H95.045L86.6486 15.9796H87.4249C90.5444 15.9796 93.0732 13.4545 93.0732 10.3397V0H86.3198Z" fill="#FBCD2B"/>
<path d="M54.5588 6.74331L60.4116 6.7433C60.7959 6.7433 61.1074 7.05436 61.1074 7.43806V9.23628H67.8608V5.63986C67.8608 2.52505 65.332 8.23132e-06 62.2125 8.23132e-06H52.7579C49.6384 8.23132e-06 47.1096 2.52505 47.1096 5.63986V26.2784C47.1096 29.3932 49.6384 31.9183 52.7579 31.9183H62.2125C65.332 31.9183 67.8608 29.3932 67.8608 26.2784V22.682H61.1074V24.4802C61.1074 24.8639 60.7959 25.175 60.4116 25.175L54.5588 25.175C54.1745 25.175 53.863 24.8639 53.863 24.4802V7.43806C53.863 7.05436 54.1745 6.74331 54.5588 6.74331Z" fill="#FBCD2B"/>
<path d="M20.7102 8.23132e-06C20.2581 8.23132e-06 19.8916 0.365957 19.8916 0.817377V5.92593C19.8916 6.37735 20.2581 6.7433 20.7102 6.7433H21.9381V26.2784C21.9381 29.3932 24.4669 31.9183 27.5863 31.9183H37.041C40.1604 31.9183 42.6892 29.3932 42.6892 26.2784V6.7433H43.9171C44.3692 6.7433 44.7357 6.37735 44.7357 5.92593V0.817377C44.7357 0.365957 44.3692 8.23132e-06 43.9171 8.23132e-06H35.9359V24.4802C35.9359 24.8639 35.6244 25.175 35.2401 25.175H29.3872C29.0029 25.175 28.6914 24.8639 28.6914 24.4802V8.23132e-06H20.7102Z" fill="#FBCD2B"/>
</svg>